<svg width="12" height="12" viewBox="0 0 12 12" fill="none" xmlns="http://www.w3.org/2000/svg">
<path d="M5.6875 0.291992C7.11807 0.293584 8.4894 0.862451 9.50098 1.87402C10.5125 2.8856 11.0814 4.25693 11.083 5.6875C11.083 6.75469 10.7667 7.79821 10.1738 8.68555C9.58094 9.57276 8.73782 10.2645 7.75195 10.6729C6.76612 11.0811 5.68129 11.1877 4.63477 10.9795C3.58811 10.7713 2.62667 10.2575 1.87207 9.50293C1.11747 8.74833 0.603718 7.78689 0.395508 6.74023C0.187341 5.69371 0.293911 4.60888 0.702148 3.62305C1.11051 2.63718 1.80224 1.79406 2.68945 1.20117C3.46598 0.682316 4.36219 0.375266 5.28906 0.306641L5.6875 0.291992ZM7.64062 0.97168C6.70801 0.585426 5.68145 0.484709 4.69141 0.681641C3.70143 0.878632 2.79187 1.36438 2.07812 2.07812C1.36438 2.79187 0.878631 3.70143 0.681641 4.69141C0.484709 5.68145 0.585425 6.70801 0.97168 7.64062C1.35799 8.57327 2.01222 9.37079 2.85156 9.93164C3.69094 10.4925 4.67799 10.792 5.6875 10.792C7.04065 10.7905 8.3381 10.2517 9.29492 9.29492C10.2517 8.3381 10.7905 7.04065 10.792 5.6875C10.792 4.67799 10.4925 3.69094 9.93164 2.85156C9.37079 2.01222 8.57327 1.35799 7.64062 0.97168ZM5.6875 2.47949C5.72618 2.47949 5.76367 2.49414 5.79102 2.52148C5.81836 2.54883 5.83301 2.58632 5.83301 2.625V5.54199H8.75C8.78868 5.54199 8.82617 5.55664 8.85352 5.58398C8.88086 5.61133 8.89551 5.64882 8.89551 5.6875C8.89551 5.72618 8.88086 5.76367 8.85352 5.79102C8.82617 5.81836 8.78868 5.83301 8.75 5.83301H5.6875C5.64882 5.83301 5.61133 5.81836 5.58398 5.79102C5.55664 5.76367 5.54199 5.72618 5.54199 5.6875V2.625C5.54199 2.58632 5.55664 2.54883 5.58398 2.52148C5.61133 2.49414 5.64882 2.47949 5.6875 2.47949Z" stroke="#DC2626" stroke-width="0.583333"/>
</svg>
