<svg width="271" height="271" viewBox="0 0 271 271" fill="none" xmlns="http://www.w3.org/2000/svg">
<path d="M63.9944 42.8549L15.7921 173.65C11.4591 185.408 17.4883 198.448 29.2587 202.776L175.623 256.598C187.394 260.925 200.448 254.903 204.781 243.146L252.983 112.35C257.317 100.592 251.287 87.5524 239.516 83.2245L93.1522 29.4031C81.382 25.0749 68.3278 31.0974 63.9944 42.8549Z" fill="#F3F3F4"/>
<path d="M53.3877 69.8384C53.3877 58.3817 64.065 49.8987 75.2612 52.4588L202.05 81.4513C208.099 82.8345 212.388 88.2036 212.388 94.3936V207.03C212.388 212.208 207.513 216.01 202.474 214.761L63.4914 180.328C57.5552 178.857 53.3877 173.541 53.3877 167.441V69.8384Z" fill="url(#paint0_linear_61_3036)" stroke="black"/>
<path d="M53.3877 67.9023C53.3877 61.5601 59.3262 56.8549 65.5746 58.2451L197.384 87.5805C202.647 88.7515 206.388 93.3806 206.388 98.7231V206.906C206.388 210.854 202.654 213.759 198.782 212.824L63.9524 180.313C57.7517 178.818 53.3877 173.317 53.3877 166.997V67.9023Z" fill="white"/>
<path d="M82.9841 99.7576C90.0249 97.778 97.526 99.772 103.973 104.656C110.422 109.54 115.793 117.301 118.536 126.787C121.28 136.273 120.868 145.66 118.003 153.163C115.137 160.667 109.831 166.263 102.791 168.243C95.7506 170.223 88.2495 168.228 81.8013 163.344C75.3538 158.46 69.9824 150.699 67.2386 141.213C64.4956 131.727 64.9076 122.34 67.7727 114.836C70.6379 107.333 75.9441 101.738 82.9841 99.7576Z" stroke="black"/>
<path d="M96.9523 131.038C101.936 129.322 104.174 122.7 101.952 116.247C99.7296 109.794 93.8885 105.955 88.9053 107.671C83.922 109.387 81.6837 116.009 83.9058 122.462C86.128 128.914 91.9691 132.754 96.9523 131.038Z" fill="#F95E16"/>
<path d="M109.356 160C109.639 154.48 108.015 148.782 104.843 144.159C101.669 139.536 97.2073 136.368 92.4375 135.351C87.6677 134.334 82.9807 135.551 79.4087 138.735C75.836 141.919 73.6701 146.81 73.3877 152.33L91.3719 156.165L109.356 160Z" fill="#F95E16"/>
<path d="M185.427 130.67L137.18 119.063C134.72 118.471 132.246 119.986 131.655 122.445C131.063 124.905 132.577 127.378 135.037 127.97L183.284 139.577C185.744 140.169 188.217 138.654 188.809 136.195C189.401 133.735 187.886 131.261 185.427 130.67Z" fill="#D9D9D9"/>
<path d="M170.428 148.345L137.095 140.326C134.636 139.734 132.162 141.249 131.57 143.708C130.979 146.168 132.493 148.642 134.952 149.233L168.285 157.252C170.745 157.844 173.219 156.33 173.81 153.87C174.402 151.41 172.888 148.937 170.428 148.345Z" fill="#D9D9D9"/>
<path d="M160.342 165.768L137.095 160.176C134.636 159.584 132.162 161.098 131.57 163.558C130.979 166.017 132.493 168.491 134.952 169.083L158.199 174.675C160.659 175.267 163.132 173.753 163.724 171.293C164.316 168.833 162.802 166.36 160.342 165.768Z" fill="#D9D9D9"/>
<path d="M175.388 174C198.018 174 216.388 192.791 216.388 216C216.388 239.209 198.018 258 175.388 258C152.757 258 134.388 239.209 134.388 216C134.388 192.791 152.757 174 175.388 174Z" fill="#F95E16" stroke="black" stroke-width="2"/>
<path d="M175.007 174C197.86 174.001 216.388 192.96 216.388 216.347C216.388 234.494 205.232 249.974 189.555 256C203.725 248.892 213.378 234.796 213.378 218.566C213.378 195.179 193.335 176.221 168.61 176.221C165.45 176.221 162.364 176.53 159.388 177.12C164.207 175.108 169.48 174 175.007 174Z" fill="white"/>
<path d="M159.363 199.412C158.029 197.694 155.555 197.383 153.837 198.718C152.119 200.052 151.808 202.526 153.142 204.244L180.281 239.182C181.616 240.9 184.09 241.211 185.808 239.877C187.526 238.542 187.837 236.068 186.502 234.35L159.363 199.412Z" fill="white"/>
<path d="M186.948 205.217L186.948 205.217C188.583 207.205 188.296 210.141 186.308 211.776L159.255 234.018C157.267 235.653 154.33 235.366 152.696 233.378C151.061 231.39 151.348 228.453 153.336 226.819L180.389 204.576C182.377 202.942 185.314 203.228 186.948 205.217Z" fill="white"/>
<defs>
<linearGradient id="paint0_linear_61_3036" x1="212.768" y1="81.1759" x2="19.8873" y2="222.36" gradientUnits="userSpaceOnUse">
<stop offset="0.155219" stop-color="#D9D9D9"/>
<stop offset="1" stop-color="#737373"/>
</linearGradient>
</defs>
</svg>
