<svg width="18" height="18" viewBox="0 0 18 18" fill="none" xmlns="http://www.w3.org/2000/svg">
<path d="M9 18C13.9706 18 18 13.9706 18 9C18 4.02944 13.9706 0 9 0C4.02944 0 0 4.02944 0 9C0 13.9706 4.02944 18 9 18Z" fill="#FBBC05"/>
<path d="M8.99977 16.8452C13.3327 16.8452 16.8452 13.3327 16.8452 8.99977C16.8452 4.66684 13.3327 1.1543 8.99977 1.1543C4.66684 1.1543 1.1543 4.66684 1.1543 8.99977C1.1543 13.3327 4.66684 16.8452 8.99977 16.8452Z" fill="#BD8A0B"/>
<path d="M3.58545 12.0944V6.67969H4.61631V9.49969L4.33585 9.40521L6.73866 6.67969H8.03481L5.7836 9.23804L5.84424 8.54031L8.10303 12.0944H6.89026L5.37429 9.71046L4.61631 10.5754V12.0944H3.58545Z" fill="#F0C800"/>
<path d="M8.72997 12.0944V6.67969H9.71535L11.8301 9.43428H11.3602L13.4295 6.67969H14.4148V12.0944H13.3764V7.80624L13.7781 7.90072L11.633 10.6408H11.5118L9.41973 7.90072L9.76082 7.80624V12.0944H8.72997Z" fill="#F0C800"/>
</svg>
